<svg xmlns="http://www.w3.org/2000/svg" xmlns:xlink="http://www.w3.org/1999/xlink" version="1.1" width="246.0678pt" height="119.0017pt" viewBox="0 0 246.0678 119.0017">
<g id="layer_1" data-name="">
<path transform="matrix(1,0,0,-1,1,118.0017)" d="M60.5254 103.0068C83.4676 103.1029 101.1657 93.7505 109.0329 71.1714 114.9035 54.3226 111.8563 39.7029 101.5486 25.609 108.0723 38.8953 111.5376 49.0368 107.8659 64.0695 102.1408 87.5095 84.416 98.7829 60.9639 98.1369 59.6188 98.0158 58.4306 99.0077 58.3095 100.3524 58.1885 101.6974 59.1803 102.886 60.5254 103.0068" fill="#0c9b9b" fill-rule="evenodd"/>
<path transform="matrix(1,0,0,-1,1,118.0017)" d="M33.6121 111.3523C56.2989 119.6062 75.2511 119.664 96.5259 105.8233 130.6089 83.651 129.2037 26.1346 93.2173 6.7408L84.9521 3.2397C90.2276 6.702 94.5346 9.2404 99.2231 13.4578 124.2031 35.9266 122.6653 82.7079 93.4651 100.7121 73.5642 112.9825 56.8845 112.4892 36.2313 104.5012 34.3395 103.7778 32.2197 104.7251 31.4963 106.617 30.7729 108.5088 31.7203 110.6289 33.6121 111.3523" fill="#98c219" fill-rule="evenodd"/>
<path transform="matrix(1,0,0,-1,1,118.0017)" d="M22.6973 72.9003C21.4812 72.7534 22.7225 72.4997 21.3457 72.3379 20.9432 71.9291 21.2862 72.1834 20.8763 71.8829 19.8235 71.1116 21.7244 72.216 20.5563 71.678 19.8632 71.3588 20.3587 71.5093 19.5437 71.5405 18.8257 70.4914 18.7546 70.6847 17.6581 70.141 16.969 69.2096 15.0778 67.9226 13.9184 66.6034 12.6167 65.1223 11.8545 63.898 10.914 62.0592 7.1895 54.7778 8.8347 46.7821 13.3991 40.5536 14.4269 39.151 15.2838 37.8853 16.2754 36.4725L19.4244 32.3184C19.0392 31.803 19.4094 32.1826 19.0208 31.8572 20.3148 31.5292 20.442 30.7562 21.1297 29.914 21.6669 29.2561 22.4376 28.4885 22.3146 27.4445 23.5256 27.0224 26.7435 21.888 27.9692 20.281 28.6138 19.436 28.5483 19.8799 28.5727 18.7549 26.8747 19.1217 17.0169 21.6805 15.7595 21.1547 15.0914 20.8755 13.4393 19.9077 13.1074 19.2594L31.1471 15.3009C31.6171 13.4198 32.239 12.5314 32.1001 10.5344L12.6159 14.7129C9.7948 15.3213 8.4557 16.4052 8.166 12.7959L31.9482 7.6493C32.3753 6.6192 31.9674 5.3552 32.8326 4.5105 34.007 3.3644 38.7791 1.6855 37.9925 11.3771 37.5953 16.2692 34.992 19.7444 32.7067 23.1029 30.81 25.8902 18.1996 42.6251 17.8767 44.096 20.6152 43.7236 31.2939 41.0111 32.345 41.1656 33.1566 41.2846 34.9534 42.5611 35.3409 43.2743L15.692 47.5727C14.885 49.9808 14.3878 52.4812 14.9258 55.1676L39.892 49.8682 40.5235 52.6762 15.7 58.0774C16.4044 60.7989 17.841 62.5003 19.4856 64.0817L38.6742 59.9868C38.7952 60.8445 38.7232 60.863 38.2003 61.613 38.0432 61.8384 37.2039 62.9303 37.1863 62.9461 36.2718 63.7773 34.0407 63.9388 32.6534 64.2317 29.4202 64.9145 26.1791 65.6167 22.9538 66.3358 23.3997 67.1803 28.6279 69.9197 29.9659 70.7315 31.5224 71.676 31.5564 71.9821 32.6174 71.7009 32.2897 72.3538 31.3583 73.6396 30.8767 74.266 30.5881 74.6416 30.1788 75.0478 29.8843 75.4058 29.361 76.0414 29.759 76.0912 28.7399 76.3381 27.684 75.996 23.724 73.7158 22.6973 72.9003" fill="#0c9b9b" fill-rule="evenodd"/>
<path transform="matrix(1,0,0,-1,1,118.0017)" d="M28.7399 76.3381C29.759 76.0912 29.361 76.0414 29.8843 75.4058 30.1788 75.0478 30.5881 74.6416 30.8767 74.266 31.3583 73.6396 32.2897 72.3538 32.6174 71.7009 37.317 65.3182 42.9934 59.3929 41.7538 51.5421 39.9407 40.0592 27.868 38.406 25.8695 35.4382 26.3015 34.5756 28.1925 31.828 29.0231 31.2806 30.9144 31.8552 40.0252 37.406 42.1977 39.8211 43.9911 41.8153 45.6389 44.2922 46.6515 47.3037 48.0515 51.4689 47.7062 53.6961 47.3791 57.2933L47.1339 58.2922 46.4956 60.5208C46.1293 61.8571 45.4813 62.7449 44.9745 63.8909 43.0985 66.4288 41.1177 69.192 39.4617 71.6683 37.6988 74.3046 35.6306 76.7792 33.9117 79.3066 30.2973 84.6213 25.1864 90.0147 24.4403 95.6239 24.2169 97.3012 24.6421 99.9011 24.3913 101.0781 23.5721 104.9204 15.772 104.8584 19.311 92.3204 20.3766 88.5455 22.0241 86.5312 23.7946 83.9928L27.8821 78.2765C29.3077 76.3543 29.082 76.9249 28.7399 76.3381" fill="#98c219" fill-rule="evenodd"/>
<path transform="matrix(1,0,0,-1,1,118.0017)" d="M50.8839 94.2273C43.954 95.7161 33.1177 98.3565 26.646 99.3974L26.3625 96.7008C32.4167 94.9127 42.9644 93.3004 49.7492 91.5174 49.4294 90.3668 47.916 88.3874 47.0642 87.6597 41.6018 88.5682 33.9877 90.4144 28.1421 91.6441 28.2708 89.9666 29.6739 88.4438 31.3787 88.0756L43.7332 85.4048C42.9627 84.2953 40.9161 83.4174 39.6264 82.6767 38.501 82.0301 36.2126 80.8262 35.5085 80.1502 35.7503 79.1617 36.265 78.7294 36.8751 77.9139 39.3647 74.5841 37.402 75.2944 45.5043 79.7131 48.1054 81.1315 50.0479 82.4567 52.0285 84.6249 53.86 86.6296 59.6976 94.8594 54.5224 96.2014 52.5149 96.7221 51.755 95.601 50.8839 94.2273" fill="#0c9b9b" fill-rule="evenodd"/>
<path transform="matrix(1,0,0,-1,1,118.0017)" d="M22.3146 27.4445C22.4376 28.4885 21.6669 29.2561 21.1297 29.914 20.442 30.7562 20.3148 31.5292 19.0208 31.8572 16.5762 30.4398 9.2906 26.3415 7.1172 24.6682 3.9563 22.2347-1.9242 14.6662 .6236 11.6376 1.3816 10.7371 2.8545 10.3119 3.9762 10.7912 6.573 11.9013 5.0936 15.6387 10.4808 20.141 12.4362 21.7752 14.2622 22.6803 16.2482 23.817 17.9246 24.7765 20.9577 26.284 22.3146 27.4445" fill="#98c219" fill-rule="evenodd"/>
<path transform="matrix(1,0,0,-1,1,118.0017)" d="M82.8371 29.5432C86.0683 32.8051 90.9003 33.5072 96.5432 40.0297 98.3103 42.0724 99.5751 44.5456 100.1506 46.6038 91.5551 44.3752 87.7068 52.0458 77.6285 52.6606 74.2518 52.867 71.5618 52.5909 69.2495 51.8321 65.7822 50.694 63.1638 48.4702 60.3519 45.1573 64.08 45.9323 66.31 46.569 68.5684 47.018 76.2007 48.5357 79.9387 48.3582 88.3284 45.8371 83.4296 45.3334 78.9639 45.4836 74.6306 44.9186 70.626 44.3962 66.7349 43.2624 62.7194 40.4362 69.1115 41.9332 79.0515 34.2468 82.8371 29.5432" fill="#98c219" fill-rule="evenodd"/>
<path transform="matrix(1,0,0,-1,1,118.0017)" d="M65.5126 37.3397C68.5216 36.1108 72.716 34.0951 76.0822 30.5904 79.6881 26.8356 82.4049 21.5229 83.5903 18.3711 80.7367 21.7162 78.2427 25.1425 75.3511 28.0086 71.6859 31.6412 67.3809 34.3743 60.8913 34.9027 56.3596 35.2718 51.762 34.221 48.2683 31.61 46.8516 30.5515 45.6106 29.3031 44.403 26.9586 43.2405 24.7017 42.7669 22.2265 42.4757 19.338 42.431 18.8918 41.6214 22.3741 36.7965 23.8878 35.6411 24.2501 34.9889 24.3215 33.0826 24.2484 33.8357 22.8073 35.6346 20.9143 36.9391 18.1426 37.5299 16.8874 38.2243 15.594 38.9361 14.3932 40.2316 12.2066 41.5843 10.3246 42.4715 9.5306 45.0051 7.2635 48.6743 4.9847 52.5994 3.1416 60.8873-.7498 65.9993-.8124 77.866 1.7824 72.2772 2.2683 54.4374 1.3394 49.5173 11.5021 46.7518 17.2145 47.899 26.5949 54.9366 28.8266 54.9689 22.5125 58.0459 16.4333 62.8084 12.6082 74.5319 3.1927 99.5145 7.4948 98.9991 24.2838 96.5684 22.4714 95.1392 18.9669 91.6461 17.1113 86.9825 19.0298 86.2217 25.4285 82.8371 29.5432 78.1815 35.3322 66.2066 43.7573 60.5631 39.4339Z" fill="#98c219" fill-rule="evenodd"/>
<path transform="matrix(1,0,0,-1,1,118.0017)" d="M76.8368 57.4843C76.5839 60.6061 77.9956 66.3942 75.6839 74.7034 74.9602 77.3053 73.5999 79.7275 72.2035 81.3458 69.3045 72.9524 60.7859 73.9902 54.6979 65.935 52.6581 63.2364 51.3998 60.8426 50.7526 58.4972 49.7823 54.9788 50.1863 51.5673 51.3899 47.3922 52.8072 50.9267 53.5107 53.1363 54.3861 55.266 57.344 62.4637 59.5602 65.4789 66.3018 71.0734 64.0114 66.7137 61.4154 63.0768 59.4887 59.1545 57.7083 55.5299 56.4999 51.6609 56.6328 46.7524 58.9221 52.9055 70.8242 56.933 76.8368 57.4843" fill="#98c219" fill-rule="evenodd"/>
<path transform="matrix(1,0,0,-1,1,118.0017)" d="M86.0119 63.2038C88.4889 63.2038 90.4969 61.196 90.4969 58.7188 90.4969 56.2419 88.4889 54.2341 86.0119 54.2341 83.535 54.2341 81.527 56.2419 81.527 58.7188 81.527 61.196 83.535 63.2038 86.0119 63.2038" fill="#98c219" fill-rule="evenodd"/>
<path transform="matrix(1,0,0,-1,1,118.0017)" d="M86.819 70.9914C88.3154 70.9914 89.5283 69.7785 89.5283 68.2821 89.5283 66.7857 88.3154 65.5724 86.819 65.5724 85.3223 65.5724 84.1093 66.7857 84.1093 68.2821 84.1093 69.7785 85.3223 70.9914 86.819 70.9914" fill="#98c219" fill-rule="evenodd"/>
<path transform="matrix(1,0,0,-1,1,118.0017)" d="M87.7671 76.7818C88.7953 76.7818 89.6289 75.9481 89.6289 74.92 89.6289 73.8916 88.7953 73.0579 87.7671 73.0579 86.7387 73.0579 85.9051 73.8916 85.9051 74.92 85.9051 75.9481 86.7387 76.7818 87.7671 76.7818" fill="#98c219" fill-rule="evenodd"/>
<path transform="matrix(1,0,0,-1,1,118.0017)" d="M134.1703 34.2298V41.3382H139.6933C141.3831 41.3382 142.2278 40.8266 142.2278 39.8035V38.3899C142.2278 37.3666 141.3831 36.8549 139.6933 36.8549H135.5134V34.2298ZM135.5134 40.2883V37.9052H139.6933C140.4876 37.9052 140.8847 38.0667 140.8847 38.3899V39.8035C140.8847 40.1267 140.4876 40.2883 139.6933 40.2883ZM142.854 41.3382H144.1967V35.28H149.9621V34.2298H142.854ZM160.7763 34.2298H159.3221L155.5963 40.0357 151.8097 34.2298H150.376L155.1016 41.3382H156.081ZM162.7047 39.642V34.2298H161.4325V41.3382H162.4929L169.5708 35.8858V41.3382H170.843V34.2298H169.7828ZM171.7415 41.3382H180.4351V40.2883H176.8102V34.2298H175.4674V40.2883H171.7415ZM186.3822 41.3382H191.9052C193.595 41.3382 194.4397 40.8266 194.4397 39.8035V39.1269C194.4397 38.5345 194.1772 38.124 193.6519 37.895 194.1772 37.6529 194.4397 37.2824 194.4397 36.7843V35.7644C194.4397 34.7414 193.595 34.2298 191.9052 34.2298H186.3822ZM191.9052 35.28C192.6995 35.28 193.0966 35.4416 193.0966 35.7644V36.8853C193.0966 37.0335 193.0042 37.1511 192.8191 37.2387 192.634 37.3263 192.3528 37.37 191.9758 37.37H187.7253V35.28ZM187.7253 40.2883V38.4202H191.9962C192.3596 38.4202 192.634 38.4656 192.8191 38.5566 193.0042 38.6473 193.0966 38.7635 193.0966 38.9049V39.8035C193.0966 40.1267 192.6995 40.2883 191.9052 40.2883ZM195.7017 41.3382H197.0447V34.2298H195.7017ZM204.9809 35.28C205.7751 35.28 206.1726 35.4348 206.1726 35.7443V39.8035C206.1726 40.1267 205.7751 40.2883 204.9809 40.2883H200.9018C200.1076 40.2883 199.7104 40.1267 199.7104 39.8035V35.7644C199.7104 35.4416 200.1076 35.28 200.9018 35.28ZM198.3677 39.8035C198.3677 40.8266 199.2124 41.3382 200.9018 41.3382H204.9809C206.6706 41.3382 207.5153 40.8266 207.5153 39.8035V35.7443C207.5153 34.7346 206.6706 34.2298 204.9809 34.2298H200.9018C199.2124 34.2298 198.3677 34.7414 198.3677 35.7644ZM208.3232 41.3382H217.0168V40.2883H213.3921V34.2298H212.0491V40.2883H208.3232ZM219.2584 37.461V35.28H225.2259V34.2298H217.9154V41.3382H225.2259V40.2883H219.2584V38.5109H224.9229V37.461ZM234.3535 35.28V34.2298H228.9314C227.2419 34.2298 226.3972 34.7751 226.3972 35.8656V39.7026C226.3972 40.7931 227.2419 41.3382 228.9314 41.3382H234.3535V40.2883H228.9314C228.1374 40.2883 227.74 40.0929 227.74 39.7026V35.8656C227.74 35.475 228.1374 35.28 228.9314 35.28ZM242.7239 37.461H236.9081V34.2298H235.565V41.3382H236.9081V38.5109H242.7239V41.3382H244.0667V34.2298H242.7239Z" fill="#0c9b9b"/>
<path transform="matrix(1,0,0,-1,1,118.0017)" d="M152.519 37.2107 156.2825 37.2699 157.0759 36.0757 151.708 36.0777Z" fill="#0c9b9b"/>
<path transform="matrix(1,0,0,-1,1,118.0017)" d="M180.3166 82.7651C184.3021 82.9315 190.1526 79.8849 190.0806 72.2171 190.1755 63.5281 181.8777 62.8027 181.9046 62.8157L189.7495 48.6306H181.5449L174.1258 62.8157H158.8397V48.6306H151.1586V62.8157 69.1072L180.1823 69.1191C181.7867 69.1191 182.2847 70.5061 182.2847 72.2171 182.2847 73.9278 181.7867 75.3151 180.1823 75.3151 170.5751 75.3151 160.9671 75.3072 151.3593 75.3072L151.4911 82.7651Z" fill="#004e75" fill-rule="evenodd"/>
<path transform="matrix(1,0,0,-1,1,118.0017)" d="M219.1 72.5185 225.4657 62.9646H218.8916L213.6555 55.6517H230.3385L235.0168 48.6309H244.0678L221.8881 81.9887H216.3589L214.6246 79.306 194.1318 48.6306H203.1829Z" fill="#004e75" fill-rule="evenodd"/>
<path transform="matrix(1,0,0,-1,1,118.0017)" d="M134.1694 82.7651H141.8502V48.6306H134.1694Z" fill="#004e75" fill-rule="evenodd"/>
</g>
</svg>
